<svg width="1440" height="1024" viewBox="0 0 1440 1024" fill="none" xmlns="http://www.w3.org/2000/svg">
<mask id="mask0_481_616" style="mask-type:alpha" maskUnits="userSpaceOnUse" x="0" y="0" width="1440" height="1024">
<rect width="1440" height="1024" fill="#D9D9D9"/>
</mask>
<g mask="url(#mask0_481_616)">
<g filter="url(#filter0_f_481_616)">
<path d="M-210.609 825.524C-210.609 977.484 -113.358 1212.09 -18.7713 1212.09C51.3917 1228.08 269.785 1260.08 582.055 1260.08C972.392 1260.08 1598.53 1145.44 1598.53 906.836C1598.53 668.232 1742.41 428.295 1621.18 428.295C1499.95 428.295 1322.76 489.612 1232.17 489.612C1141.58 489.612 972.392 283 562.072 283C151.751 283 141.094 520.271 78.4799 520.271C15.8661 520.271 -18.7713 380.308 -89.3784 380.308C-159.985 380.308 -210.609 673.564 -210.609 825.524Z" fill="url(#paint0_radial_481_616)"/>
</g>
<g style="mix-blend-mode:plus-lighter">
<circle cx="1254.88" cy="419.707" r="1.57681" fill="white" fill-opacity="0.1"/>
<circle cx="992.024" cy="722.847" r="1.57681" fill="white" fill-opacity="0.6"/>
<circle cx="1084.32" cy="209.405" r="1.57681" fill="white" fill-opacity="0.1"/>
<circle cx="1367.49" cy="526.593" r="1.57681" fill="white" fill-opacity="0.1"/>
<circle cx="1176.93" cy="1020.5" r="1.57681" fill="white" fill-opacity="0.3"/>
<circle cx="795.55" cy="717.003" r="1.57681" fill="white" fill-opacity="0.3"/>
<circle cx="1114.69" cy="675.471" r="1.57681" fill="white" fill-opacity="0.15"/>
<circle cx="533.161" cy="665.943" r="1.57681" fill="white" fill-opacity="0.7"/>
<circle cx="140.116" cy="689.659" r="1.57681" fill="white" fill-opacity="0.15"/>
<circle cx="1329.36" cy="100.315" r="1.57681" fill="white" fill-opacity="0.3"/>
<circle cx="849.286" cy="361.784" r="1.57681" fill="white" fill-opacity="0.15"/>
<circle cx="629.343" cy="267.563" r="1.57681" fill="white" fill-opacity="0.3"/>
<circle cx="242.997" cy="365.331" r="1.57681" fill="white" fill-opacity="0.1"/>
<circle cx="1218.13" cy="975.442" r="1.57681" fill="white" fill-opacity="0.3"/>
<circle cx="825.281" cy="48.8787" r="1.57681" fill="white" fill-opacity="0.1"/>
<circle cx="532.067" cy="56.1267" r="1.57681" fill="white" fill-opacity="0.3"/>
<circle cx="999.712" cy="719.749" r="1.57681" fill="white" fill-opacity="0.3"/>
<circle cx="1225.51" cy="321.662" r="1.57681" fill="white" fill-opacity="0.1"/>
<circle cx="489.281" cy="264.495" r="1.57681" fill="white" fill-opacity="0.3"/>
<circle cx="1283.45" cy="599.205" r="1.57681" fill="white" fill-opacity="0.1"/>
<circle cx="1070.52" cy="934.878" r="1.57681" fill="white" fill-opacity="0.6"/>
<circle cx="316.891" cy="135.778" r="1.57681" fill="white" fill-opacity="0.15"/>
<circle cx="1156.39" cy="148.38" r="1.57681" fill="white" fill-opacity="0.1"/>
<circle cx="141.839" cy="997.942" r="1.57681" fill="white" fill-opacity="0.1"/>
<circle cx="708.07" cy="572.601" r="1.57681" fill="white" fill-opacity="0.3"/>
<circle cx="1112.14" cy="714.46" r="1.57681" fill="white" fill-opacity="0.15"/>
<circle cx="349.392" cy="785.807" r="1.57681" fill="white" fill-opacity="0.3"/>
<circle cx="167.844" cy="557.607" r="1.57681" fill="white" fill-opacity="0.3"/>
<circle cx="344.506" cy="309.452" r="1.57681" fill="white" fill-opacity="0.1"/>
<circle cx="193.39" cy="403.038" r="2.36489" fill="white" fill-opacity="0.3"/>
<circle cx="88.9342" cy="374.278" r="2.36489" fill="white" fill-opacity="0.3"/>
<circle cx="1103.18" cy="439.177" r="2.36489" fill="white" fill-opacity="0.3"/>
<circle cx="1342.24" cy="24.2901" r="2.36489" fill="white" fill-opacity="0.1"/>
<circle cx="142.562" cy="654.768" r="2.36489" fill="white" fill-opacity="0.15"/>
<circle cx="614.236" cy="379.339" r="2.36489" fill="white" fill-opacity="0.1"/>
<circle cx="162.779" cy="279.181" r="2.36489" fill="white" fill-opacity="0.1"/>
<circle cx="101.325" cy="394.149" r="2.36489" fill="white" fill-opacity="0.15"/>
<circle cx="1339.99" cy="176.62" r="2.36489" fill="white" fill-opacity="0.1"/>
<circle cx="154.792" cy="504.214" r="2.36489" fill="white" fill-opacity="0.1"/>
<circle cx="1439.54" cy="856.551" r="2.36489" fill="white" fill-opacity="0.3"/>
<circle cx="199.747" cy="535.536" r="2.36489" fill="white" fill-opacity="0.3"/>
<circle cx="1339.71" cy="140.149" r="2.36489" fill="white" fill-opacity="0.1"/>
<circle cx="950.227" cy="468.848" r="2.36489" fill="white" fill-opacity="0.7"/>
<circle cx="1363.57" cy="275.856" r="2.36489" fill="white" fill-opacity="0.1"/>
<circle cx="500.464" cy="52.6288" r="2.36489" fill="white" fill-opacity="0.1"/>
<circle cx="1350.75" cy="668.519" r="2.36489" fill="white" fill-opacity="0.3"/>
<circle cx="1366.68" cy="624.298" r="2.36489" fill="white" fill-opacity="0.1"/>
<circle cx="199.42" cy="652.144" r="2.36489" fill="white" fill-opacity="0.7"/>
<circle cx="1155.71" cy="635.122" r="2.36489" fill="white" fill-opacity="0.1"/>
<circle cx="324.262" cy="621.418" r="0.788079" fill="white" fill-opacity="0.1"/>
<circle cx="356.217" cy="248.638" r="0.788079" fill="white" fill-opacity="0.1"/>
<circle cx="1313.88" cy="407.957" r="0.788079" fill="white" fill-opacity="0.3"/>
<circle cx="180.595" cy="775.067" r="0.788079" fill="white" fill-opacity="0.15"/>
<circle cx="477.567" cy="667.869" r="0.788079" fill="white" fill-opacity="0.1"/>
<circle cx="986.294" cy="612.281" r="0.788079" fill="white" fill-opacity="0.1"/>
<circle cx="1314.25" cy="734.517" r="0.788079" fill="white" fill-opacity="0.15"/>
<circle cx="646.278" cy="536.101" r="0.788079" fill="white" fill-opacity="0.1"/>
<circle cx="1215.18" cy="642.838" r="0.788079" fill="white" fill-opacity="0.15"/>
<circle cx="192.106" cy="884.698" r="0.788079" fill="white" fill-opacity="0.3"/>
<circle cx="1289.29" cy="57.9311" r="0.788079" fill="white" fill-opacity="0.3"/>
<circle cx="984.677" cy="228.891" r="0.788079" fill="white" fill-opacity="0.1"/>
<circle cx="522.16" cy="217.787" r="0.788079" fill="white" fill-opacity="0.15"/>
<circle cx="796.509" cy="371.655" r="0.788079" fill="white" fill-opacity="0.8"/>
<circle cx="323.917" cy="0.303704" r="0.788079" fill="white" fill-opacity="0.15"/>
<circle cx="901.159" cy="459.267" r="0.788079" fill="white" fill-opacity="0.15"/>
<circle cx="826.497" cy="735.411" r="0.788079" fill="white" fill-opacity="0.1"/>
<circle cx="772.486" cy="52.493" r="0.788079" fill="white" fill-opacity="0.7"/>
<circle cx="351.428" cy="436.536" r="0.788079" fill="white" fill-opacity="0.8"/>
<circle cx="260.59" cy="8.93224" r="0.788079" fill="white" fill-opacity="0.1"/>
<circle cx="1001.5" cy="157.793" r="0.788079" fill="white" fill-opacity="0.1"/>
<circle cx="791.447" cy="137.759" r="0.788079" fill="white" fill-opacity="0.15"/>
<circle cx="1166.61" cy="794.082" r="0.788079" fill="white" fill-opacity="0.15"/>
<circle cx="29.0442" cy="874.277" r="0.788079" fill="white" fill-opacity="0.15"/>
<circle cx="41.7539" cy="480.56" r="0.788079" fill="white" fill-opacity="0.3"/>
<circle cx="740.356" cy="864.54" r="0.788079" fill="white" fill-opacity="0.3"/>
<circle cx="720.517" cy="532.193" r="0.788079" fill="white" fill-opacity="0.3"/>
<circle cx="405.781" cy="114.363" r="0.788079" fill="white" fill-opacity="0.1"/>
<circle cx="1057.66" cy="931.45" r="0.788079" fill="white" fill-opacity="0.1"/>
<circle cx="1009.99" cy="22.8072" r="0.788079" fill="white" fill-opacity="0.3"/>
<circle cx="717.055" cy="839.255" r="0.788079" fill="white" fill-opacity="0.1"/>
<circle cx="1147.71" cy="606.193" r="0.788079" fill="white" fill-opacity="0.1"/>
<circle cx="431.479" cy="14.9127" r="0.788079" fill="white" fill-opacity="0.3"/>
<circle cx="257.787" cy="949.106" r="0.788079" fill="white" fill-opacity="0.1"/>
<circle cx="442.266" cy="130.539" r="0.788079" fill="white" fill-opacity="0.3"/>
<circle cx="835.315" cy="808.602" r="0.788079" fill="white" fill-opacity="0.1"/>
<circle cx="266.119" cy="6.67944" r="0.788079" fill="white" fill-opacity="0.1"/>
<circle cx="937.06" cy="1004.93" r="0.788079" fill="white" fill-opacity="0.3"/>
<circle cx="1282.02" cy="948.456" r="0.788079" fill="white" fill-opacity="0.15"/>
<circle cx="801.583" cy="480.212" r="0.788079" fill="white" fill-opacity="0.3"/>
<circle cx="1030.19" cy="514.15" r="0.788079" fill="white" fill-opacity="0.3"/>
<circle cx="94.1575" cy="363.119" r="0.788079" fill="white" fill-opacity="0.1"/>
<circle cx="809.846" cy="21.4592" r="0.788079" fill="white" fill-opacity="0.1"/>
<circle cx="817.798" cy="949.415" r="0.788079" fill="white" fill-opacity="0.1"/>
<circle cx="322.248" cy="288.433" r="0.788079" fill="white" fill-opacity="0.3"/>
<circle cx="117.742" cy="578.161" r="0.788079" fill="white" fill-opacity="0.15"/>
<circle cx="95.0317" cy="444.543" r="0.788079" fill="white" fill-opacity="0.1"/>
<circle cx="609.704" cy="41.2476" r="0.788079" fill="white" fill-opacity="0.1"/>
<circle cx="760.22" cy="229.798" r="0.788079" fill="white" fill-opacity="0.3"/>
<circle cx="1370.5" cy="567.657" r="0.788079" fill="white" fill-opacity="0.1"/>
<circle cx="771.834" cy="933.356" r="0.788079" fill="white" fill-opacity="0.1"/>
<circle cx="1379.67" cy="733.197" r="0.788079" fill="white" fill-opacity="0.1"/>
<circle cx="520.239" cy="412.152" r="0.788079" fill="white" fill-opacity="0.1"/>
<circle cx="22.4949" cy="45.8533" r="0.788079" fill="white" fill-opacity="0.7"/>
<circle cx="374.239" cy="54.7632" r="0.788079" fill="white" fill-opacity="0.15"/>
<circle cx="218.584" cy="19.9204" r="0.788079" fill="white" fill-opacity="0.1"/>
<circle cx="840.927" cy="148.324" r="0.788079" fill="white" fill-opacity="0.3"/>
<circle cx="549.863" cy="990.209" r="0.788079" fill="white" fill-opacity="0.1"/>
<circle cx="812.467" cy="194.35" r="0.788079" fill="white" fill-opacity="0.3"/>
<circle cx="1058.71" cy="483.184" r="0.788079" fill="white" fill-opacity="0.7"/>
<circle cx="1413.88" cy="94.7074" r="0.788079" fill="white" fill-opacity="0.1"/>
<circle cx="170.34" cy="85.2596" r="0.788079" fill="white" fill-opacity="0.1"/>
<circle cx="1378.79" cy="650.55" r="0.788079" fill="white" fill-opacity="0.1"/>
<circle cx="726.239" cy="142.669" r="0.788079" fill="white" fill-opacity="0.3"/>
<circle cx="269.021" cy="162.505" r="0.788079" fill="white" fill-opacity="0.3"/>
<circle cx="1214.94" cy="473.914" r="0.788079" fill="white" fill-opacity="0.1"/>
<circle cx="1020.75" cy="596.084" r="0.788079" fill="white" fill-opacity="0.1"/>
<circle cx="43.3611" cy="934.654" r="0.788079" fill="white" fill-opacity="0.1"/>
<circle cx="496.743" cy="294.95" r="0.788079" fill="white" fill-opacity="0.1"/>
<circle cx="725.123" cy="870.627" r="0.788079" fill="white" fill-opacity="0.3"/>
<circle cx="703.834" cy="1020.78" r="0.788079" fill="white" fill-opacity="0.1"/>
<circle cx="361.254" cy="686.24" r="0.788079" fill="white" fill-opacity="0.3"/>
<circle cx="155.014" cy="81.303" r="0.788079" fill="white" fill-opacity="0.3"/>
<circle cx="1400.51" cy="759.55" r="0.788079" fill="white" fill-opacity="0.7"/>
<circle cx="931.302" cy="567.172" r="0.788079" fill="white" fill-opacity="0.1"/>
<circle cx="752.867" cy="722.096" r="0.788079" fill="white" fill-opacity="0.3"/>
<circle cx="62.7302" cy="652.027" r="0.788079" fill="white" fill-opacity="0.1"/>
<circle cx="328.273" cy="60.4542" r="0.788079" fill="white" fill-opacity="0.3"/>
<circle cx="791.785" cy="279.15" r="0.788079" fill="white" fill-opacity="0.1"/>
<circle cx="537.701" cy="513.403" r="0.788079" fill="white" fill-opacity="0.3"/>
<circle cx="1254.8" cy="629.259" r="0.788079" fill="white" fill-opacity="0.3"/>
<circle cx="324.027" cy="645.618" r="0.788079" fill="white" fill-opacity="0.15"/>
<circle cx="1401.72" cy="883.85" r="0.788079" fill="white" fill-opacity="0.3"/>
<circle cx="1074.05" cy="578.692" r="0.788079" fill="white" fill-opacity="0.6"/>
<circle cx="143.886" cy="415.288" r="0.788079" fill="white" fill-opacity="0.3"/>
<circle cx="126.895" cy="150.951" r="0.788079" fill="white" fill-opacity="0.1"/>
<circle cx="757.434" cy="621.761" r="0.788079" fill="white" fill-opacity="0.3"/>
<circle cx="1269.65" cy="660.536" r="0.788079" fill="white" fill-opacity="0.3"/>
<circle cx="548.054" cy="703.788" r="0.788079" fill="white" fill-opacity="0.1"/>
<circle cx="1241.97" cy="224.553" r="0.788079" fill="white" fill-opacity="0.3"/>
<circle cx="1190.02" cy="841.919" r="0.788079" fill="white" fill-opacity="0.6"/>
<circle cx="286.314" cy="712.509" r="0.788079" fill="white" fill-opacity="0.3"/>
<circle cx="352.228" cy="258.615" r="0.788079" fill="white" fill-opacity="0.3"/>
<circle cx="416.118" cy="938.845" r="0.788079" fill="white" fill-opacity="0.1"/>
<circle cx="810.86" cy="360.455" r="0.788079" fill="white" fill-opacity="0.1"/>
<circle cx="1005.62" cy="453.782" r="0.788079" fill="white" fill-opacity="0.6"/>
<circle cx="998.83" cy="246.63" r="0.788079" fill="white" fill-opacity="0.3"/>
<circle cx="401.353" cy="41.3014" r="0.788079" fill="white" fill-opacity="0.1"/>
<circle cx="868.604" cy="109.072" r="0.788079" fill="white" fill-opacity="0.3"/>
<circle cx="842.61" cy="293.311" r="0.788079" fill="white" fill-opacity="0.1"/>
<circle cx="819.418" cy="846.205" r="0.788079" fill="white" fill-opacity="0.1"/>
<circle cx="1408.39" cy="722.98" r="0.788079" fill="white" fill-opacity="0.3"/>
<circle cx="120.451" cy="790.047" r="0.788079" fill="white" fill-opacity="0.1"/>
<circle cx="152.128" cy="809.965" r="0.788079" fill="white" fill-opacity="0.6"/>
<circle cx="624.162" cy="528.853" r="0.788079" fill="white" fill-opacity="0.3"/>
<circle cx="709.369" cy="95.5161" r="0.788079" fill="white" fill-opacity="0.3"/>
<circle cx="1044.02" cy="989.635" r="0.788079" fill="white" fill-opacity="0.1"/>
<circle cx="979.374" cy="445.064" r="0.788079" fill="white" fill-opacity="0.1"/>
<circle cx="1424.89" cy="777.273" r="0.788079" fill="white" fill-opacity="0.1"/>
<circle cx="1410.77" cy="679.062" r="0.788079" fill="white" fill-opacity="0.6"/>
<circle cx="863.141" cy="220.064" r="0.788079" fill="white" fill-opacity="0.3"/>
<circle cx="1230.29" cy="957.516" r="0.788079" fill="white" fill-opacity="0.1"/>
<circle cx="473.762" cy="910.935" r="0.788079" fill="white" fill-opacity="0.1"/>
<circle cx="301.135" cy="584.599" r="0.788079" fill="white" fill-opacity="0.15"/>
<circle cx="562.404" cy="11.708" r="0.788079" fill="white" fill-opacity="0.15"/>
<circle cx="369.772" cy="940.157" r="0.788079" fill="white" fill-opacity="0.15"/>
<circle cx="1122.41" cy="194.372" r="0.788079" fill="white" fill-opacity="0.3"/>
<circle cx="992.985" cy="39.7596" r="0.788079" fill="white" fill-opacity="0.6"/>
<circle cx="1276.54" cy="371.224" r="0.788079" fill="white" fill-opacity="0.1"/>
<circle cx="1278.39" cy="546.693" r="0.788079" fill="white" fill-opacity="0.1"/>
<circle cx="328.222" cy="1006.07" r="0.788079" fill="white" fill-opacity="0.1"/>
<circle cx="1286.86" cy="824.347" r="0.788079" fill="white" fill-opacity="0.1"/>
<circle cx="457.012" cy="272.059" r="0.788079" fill="white" fill-opacity="0.3"/>
<circle cx="188.051" cy="819.549" r="0.788079" fill="white" fill-opacity="0.15"/>
<circle cx="1404.36" cy="356.212" r="0.788079" fill="white" fill-opacity="0.1"/>
<circle cx="985.146" cy="639.556" r="0.788079" fill="white" fill-opacity="0.1"/>
<circle cx="1136.22" cy="379.095" r="0.788079" fill="white" fill-opacity="0.1"/>
<circle cx="1283.76" cy="1018.79" r="0.788079" fill="white" fill-opacity="0.15"/>
<circle cx="851.692" cy="55.5471" r="0.788079" fill="white" fill-opacity="0.7"/>
<circle cx="327.26" cy="264.574" r="0.788079" fill="white" fill-opacity="0.1"/>
<circle cx="634.117" cy="72.0583" r="0.788079" fill="white" fill-opacity="0.15"/>
<circle cx="148.339" cy="613.906" r="0.788079" fill="white" fill-opacity="0.1"/>
<circle cx="522" cy="83.3412" r="0.788079" fill="white" fill-opacity="0.3"/>
<circle cx="857.727" cy="868.451" r="0.788079" fill="white" fill-opacity="0.3"/>
<circle cx="590.327" cy="633.948" r="0.788079" fill="white" fill-opacity="0.1"/>
<path d="M1368.08 39.6144L1369.45 41.9796H1366.71L1368.08 39.6144Z" fill="white" fill-opacity="0.3"/>
<path d="M572.74 983.118L574.106 985.483H571.375L572.74 983.118Z" fill="white" fill-opacity="0.1"/>
<path d="M478.182 747.144L479.547 749.509H476.816L478.182 747.144Z" fill="white" fill-opacity="0.15"/>
<circle cx="497.253" cy="917.722" r="1.57681" fill="white" fill-opacity="0.3"/>
<circle cx="494.963" cy="964.335" r="1.57681" fill="white" fill-opacity="0.3"/>
<circle cx="538.45" cy="872.668" r="1.57681" fill="white" fill-opacity="0.3"/>
<circle cx="350.844" cy="944.866" r="0.788079" fill="white" fill-opacity="0.15"/>
<circle cx="364.335" cy="886.862" r="0.788079" fill="white" fill-opacity="0.1"/>
<circle cx="604.074" cy="916.013" r="0.788079" fill="white" fill-opacity="0.15"/>
<path d="M447.511 957.385L448.876 959.75H446.145L447.511 957.385Z" fill="white" fill-opacity="0.1"/>
<path d="M1244.28 512.465L1245.65 514.83H1242.92L1244.28 512.465Z" fill="white" fill-opacity="0.1"/>
<path d="M429.539 658.975L430.905 661.341H428.173L429.539 658.975Z" fill="white" fill-opacity="0.1"/>
<path d="M311.572 711.65L312.938 714.015H310.207L311.572 711.65Z" fill="white" fill-opacity="0.3"/>
<path d="M602.602 69.8226L603.967 72.1878H601.236L602.602 69.8226Z" fill="white" fill-opacity="0.1"/>
<path d="M1093.43 359.769L1094.8 362.134H1092.07L1093.43 359.769Z" fill="white" fill-opacity="0.3"/>
<path d="M540.675 591.776L542.041 594.141H539.31L540.675 591.776Z" fill="white" fill-opacity="0.1"/>
<path d="M1424.95 588.033L1426.31 590.398H1423.58L1424.95 588.033Z" fill="white" fill-opacity="0.1"/>
<circle cx="495.299" cy="660.734" r="1.57681" fill="white" fill-opacity="0.3"/>
<circle cx="293.061" cy="460.543" r="2.36489" fill="white" fill-opacity="0.3"/>
<circle cx="498.171" cy="615.38" r="0.788079" fill="white" fill-opacity="0.3"/>
<circle cx="396.747" cy="542.099" r="0.788079" fill="white" fill-opacity="0.1"/>
<circle cx="417.942" cy="557.078" r="0.788079" fill="white" fill-opacity="0.1"/>
<circle cx="450.437" cy="446.996" r="0.788079" fill="white" fill-opacity="0.1"/>
<circle cx="437.727" cy="645.383" r="0.788079" fill="white" fill-opacity="0.7"/>
<circle cx="255.246" cy="487.842" r="0.788079" fill="white" fill-opacity="0.3"/>
<circle cx="512.316" cy="650.937" r="0.788079" fill="white" fill-opacity="0.1"/>
<circle cx="388.838" cy="682.593" r="0.788079" fill="white" fill-opacity="0.3"/>
<circle cx="568.416" cy="566.128" r="0.788079" fill="white" fill-opacity="0.15"/>
<circle cx="510.127" cy="456.115" r="0.788079" fill="white" fill-opacity="0.3"/>
<circle cx="256.506" cy="638.546" r="0.788079" fill="white" fill-opacity="0.1"/>
<path d="M424.518 577.27L425.884 579.635H423.153L424.518 577.27Z" fill="white" fill-opacity="0.3"/>
<path d="M829.044 585.044L830.41 587.409H827.679L829.044 585.044Z" fill="white" fill-opacity="0.3"/>
<path d="M726.797 870.657L728.162 873.022H725.431L726.797 870.657Z" fill="white" fill-opacity="0.1"/>
<circle cx="1233.73" cy="350.181" r="1.92782" transform="rotate(26.8111 1233.73 350.181)" fill="white" fill-opacity="0.3"/>
<circle cx="878.639" cy="202.178" r="2.89134" transform="rotate(26.8111 878.639 202.178)" fill="white" fill-opacity="0.1"/>
<circle cx="970.213" cy="199.536" r="0.963515" transform="rotate(26.8111 970.213 199.536)" fill="white" fill-opacity="0.6"/>
<circle cx="1062.58" cy="322.468" r="0.963515" transform="rotate(26.8111 1062.58 322.468)" fill="white" fill-opacity="0.1"/>
<circle cx="1436.03" cy="325.786" r="0.963515" transform="rotate(26.8111 1436.03 325.786)" fill="white" fill-opacity="0.1"/>
<circle cx="1142.07" cy="166.421" r="0.963515" transform="rotate(26.8111 1142.07 166.421)" fill="white" fill-opacity="0.15"/>
<circle cx="1060.19" cy="171.097" r="0.963515" transform="rotate(26.8111 1060.19 171.097)" fill="white" fill-opacity="0.1"/>
<circle cx="1038.04" cy="200.889" r="0.963515" transform="rotate(26.8111 1038.04 200.889)" fill="white" fill-opacity="0.1"/>
<circle cx="1177.54" cy="253.343" r="0.963515" transform="rotate(26.8111 1177.54 253.343)" fill="white" fill-opacity="0.3"/>
<circle cx="1323.04" cy="265.691" r="0.963515" transform="rotate(26.8111 1323.04 265.691)" fill="white" fill-opacity="0.1"/>
<circle cx="1420.48" cy="331.745" r="0.963515" transform="rotate(26.8111 1420.48 331.745)" fill="white" fill-opacity="0.3"/>
<circle cx="924.517" cy="261.176" r="0.963515" transform="rotate(26.8111 924.517 261.176)" fill="white" fill-opacity="0.1"/>
<circle cx="1309.04" cy="252.953" r="0.963515" transform="rotate(26.8111 1309.04 252.953)" fill="white" fill-opacity="0.15"/>
<circle cx="923.464" cy="194.607" r="0.963515" transform="rotate(26.8111 923.464 194.607)" fill="white" fill-opacity="0.15"/>
<circle cx="947.273" cy="165.785" r="0.963515" transform="rotate(26.8111 947.273 165.785)" fill="white" fill-opacity="0.3"/>
<circle cx="983.865" cy="172.699" r="0.963515" transform="rotate(26.8111 983.865 172.699)" fill="white" fill-opacity="0.3"/>
<circle cx="1270.79" cy="257.213" r="0.963515" transform="rotate(26.8111 1270.79 257.213)" fill="white" fill-opacity="0.3"/>
<circle cx="845.868" cy="30.8813" r="0.963515" transform="rotate(26.8111 845.868 30.8813)" fill="white" fill-opacity="0.1"/>
<circle cx="1068.19" cy="339.646" r="0.963515" transform="rotate(26.8111 1068.19 339.646)" fill="white" fill-opacity="0.15"/>
<path d="M1231.4 247.846L1231.58 251.18L1228.6 249.674L1231.4 247.846Z" fill="white" fill-opacity="0.6"/>
<path d="M1211.74 336.405L1211.92 339.739L1208.94 338.233L1211.74 336.405Z" fill="white" fill-opacity="0.3"/>
<path d="M314.485 958.388L315.85 960.753H313.119L314.485 958.388Z" fill="white" fill-opacity="0.1"/>
<path d="M282.434 631.859L283.8 634.225H281.068L282.434 631.859Z" fill="white" fill-opacity="0.1"/>
<path d="M1282.26 828.54L1282.59 829.782L1283.83 830.117L1282.59 830.451L1282.26 831.693L1281.92 830.451L1280.68 830.117L1281.92 829.782L1282.26 828.54Z" fill="white" fill-opacity="0.3"/>
<path d="M1266.69 198.344L1267.03 199.587L1268.27 199.921L1267.03 200.256L1266.69 201.498L1266.36 200.256L1265.11 199.921L1266.36 199.587L1266.69 198.344Z" fill="white" fill-opacity="0.3"/>
<path d="M516.632 70.9745L516.967 72.2168L518.209 72.5513L516.967 72.8858L516.632 74.1281L516.298 72.8858L515.056 72.5513L516.298 72.2168L516.632 70.9745Z" fill="white" fill-opacity="0.3"/>
<path d="M440.815 447.165L441.149 448.407L442.391 448.741L441.149 449.076L440.815 450.318L440.48 449.076L439.238 448.741L440.48 448.407L440.815 447.165Z" fill="white" fill-opacity="0.1"/>
<path d="M882.46 735.676L882.795 736.919L884.037 737.253L882.795 737.588L882.46 738.83L882.126 737.588L880.884 737.253L882.126 736.919L882.46 735.676Z" fill="white" fill-opacity="0.1"/>
<path d="M1003 434.39L1003.34 435.632L1004.58 435.967L1003.34 436.301L1003 437.544L1002.67 436.301L1001.42 435.967L1002.67 435.632L1003 434.39Z" fill="white" fill-opacity="0.1"/>
<path d="M326.402 1006.68L326.737 1007.92L327.979 1008.25L326.737 1008.59L326.402 1009.83L326.068 1008.59L324.826 1008.25L326.068 1007.92L326.402 1006.68Z" fill="white" fill-opacity="0.1"/>
<path d="M208.364 618.378L208.699 619.621L209.941 619.955L208.699 620.29L208.364 621.532L208.03 620.29L206.787 619.955L208.03 619.621L208.364 618.378Z" fill="white" fill-opacity="0.1"/>
<path d="M1309.65 0.707886L1309.98 1.9502L1311.22 2.28469L1309.98 2.61919L1309.65 3.8615L1309.31 2.61919L1308.07 2.28469L1309.31 1.9502L1309.65 0.707886Z" fill="white" fill-opacity="0.1"/>
<circle cx="606.043" cy="363.102" r="1.57681" fill="white" fill-opacity="0.3"/>
<circle cx="935.536" cy="452.769" r="1.57681" fill="white" fill-opacity="0.3"/>
<circle cx="837.509" cy="323.983" r="1.57681" fill="white" fill-opacity="0.3"/>
<circle cx="433.069" cy="411.168" r="1.57681" fill="white" fill-opacity="0.1"/>
<circle cx="618.918" cy="287.077" r="2.36489" fill="white" fill-opacity="0.1"/>
<circle cx="616.664" cy="439.408" r="2.36489" fill="white" fill-opacity="0.1"/>
<circle cx="640.245" cy="538.644" r="2.36489" fill="white" fill-opacity="0.1"/>
<circle cx="565.965" cy="320.719" r="0.788079" fill="white" fill-opacity="0.3"/>
<circle cx="975.294" cy="316.835" r="0.788079" fill="white" fill-opacity="0.1"/>
<circle cx="959.903" cy="324.959" r="0.788079" fill="white" fill-opacity="0.1"/>
<circle cx="690.556" cy="357.495" r="0.788079" fill="white" fill-opacity="0.1"/>
<circle cx="960.554" cy="288.131" r="0.788079" fill="white" fill-opacity="0.6"/>
<circle cx="725.363" cy="506.387" r="0.788079" fill="white" fill-opacity="0.7"/>
<circle cx="466.546" cy="253.817" r="0.788079" fill="white" fill-opacity="0.6"/>
<circle cx="750.07" cy="479.068" r="0.788079" fill="white" fill-opacity="0.1"/>
<circle cx="775.652" cy="379.71" r="0.788079" fill="white" fill-opacity="0.15"/>
<circle cx="518.651" cy="487.34" r="0.788079" fill="white" fill-opacity="0.3"/>
<circle cx="894.794" cy="315.325" r="0.788079" fill="white" fill-opacity="0.1"/>
<circle cx="978.475" cy="257.68" r="0.788079" fill="white" fill-opacity="0.1"/>
<circle cx="824.572" cy="527.802" r="0.788079" fill="white" fill-opacity="0.3"/>
<circle cx="937.366" cy="339.635" r="0.788079" fill="white" fill-opacity="0.1"/>
<circle cx="724.493" cy="322.333" r="0.788079" fill="white" fill-opacity="0.3"/>
<circle cx="871.279" cy="478.731" r="0.788079" fill="white" fill-opacity="0.3"/>
<circle cx="990.303" cy="369.621" r="0.788079" fill="white" fill-opacity="0.1"/>
<circle cx="895.102" cy="457.285" r="0.788079" fill="white" fill-opacity="0.3"/>
<circle cx="192.091" cy="844.625" r="2.36489" fill="white" fill-opacity="0.3"/>
<circle cx="119.096" cy="919.598" r="0.788079" fill="white" fill-opacity="0.3"/>
<circle cx="147.615" cy="888.632" r="0.788079" fill="white" fill-opacity="0.7"/>
<circle cx="20.2117" cy="972.62" r="0.788079" fill="white" fill-opacity="0.1"/>
<circle cx="94.5347" cy="859.23" r="0.788079" fill="white" fill-opacity="0.6"/>
<circle cx="68.283" cy="850.512" r="0.788079" fill="white" fill-opacity="0.1"/>
<path d="M14.0185 493.519L14.353 494.761L15.5953 495.096L14.353 495.43L14.0185 496.673L13.684 495.43L12.4417 495.096L13.684 494.761L14.0185 493.519Z" fill="white" fill-opacity="0.1"/>
<path d="M34.653 925.199L34.9875 926.442L36.2298 926.776L34.9875 927.111L34.653 928.353L34.3185 927.111L33.0762 926.776L34.3185 926.442L34.653 925.199Z" fill="white" fill-opacity="0.1"/>
<path d="M1071.02 586.735L1071.35 587.977L1072.6 588.311L1071.35 588.646L1071.02 589.888L1070.68 588.646L1069.44 588.311L1070.68 587.977L1071.02 586.735Z" fill="white" fill-opacity="0.1"/>
<path d="M675.691 117.174L676.026 118.417L677.268 118.751L676.026 119.085L675.691 120.328L675.357 119.085L674.114 118.751L675.357 118.417L675.691 117.174Z" fill="white" fill-opacity="0.15"/>
<circle cx="225.126" cy="784.543" r="0.788079" fill="white" fill-opacity="0.1"/>
<path d="M91.9118 839.838L92.2463 841.08L93.4886 841.415L92.2463 841.749L91.9118 842.992L91.5773 841.749L90.335 841.415L91.5773 841.08L91.9118 839.838Z" fill="white" fill-opacity="0.1"/>
<circle cx="24.445" cy="858.217" r="1.57681" fill="white" fill-opacity="0.3"/>
<circle cx="862.472" cy="334.307" r="0.788079" fill="white" fill-opacity="0.3"/>
<circle cx="725.376" cy="247.537" r="0.788079" fill="white" fill-opacity="0.3"/>
<path d="M644.758 302.402L646.124 304.767H643.392L644.758 302.402Z" fill="white" fill-opacity="0.3"/>
<path d="M668.325 341.511L669.69 343.876H666.959L668.325 341.511Z" fill="white" fill-opacity="0.3"/>
<path d="M718.852 495.46L720.218 497.825H717.486L718.852 495.46Z" fill="white" fill-opacity="0.1"/>
<path d="M543.369 461.132L543.703 462.374L544.946 462.709L543.703 463.043L543.369 464.285L543.034 463.043L541.792 462.709L543.034 462.374L543.369 461.132Z" fill="white" fill-opacity="0.3"/>
<path d="M586.325 263.496L586.66 264.738L587.902 265.073L586.66 265.407L586.325 266.649L585.991 265.407L584.749 265.073L585.991 264.738L586.325 263.496Z" fill="white" fill-opacity="0.1"/>
<path d="M47.5438 1019.62L47.8783 1020.86L49.1207 1021.2L47.8783 1021.53L47.5438 1022.77L47.2094 1021.53L45.967 1021.2L47.2094 1020.86L47.5438 1019.62Z" fill="white" fill-opacity="0.3"/>
<path d="M639.811 704.225L640.145 705.467L641.388 705.802L640.145 706.136L639.811 707.379L639.476 706.136L638.234 705.802L639.476 705.467L639.811 704.225Z" fill="white" fill-opacity="0.3"/>
<path d="M997.007 619.654L997.341 620.896L998.584 621.231L997.341 621.565L997.007 622.808L996.672 621.565L995.43 621.231L996.672 620.896L997.007 619.654Z" fill="white" fill-opacity="0.6"/>
<path d="M95.2204 535.749L95.5549 536.991L96.7972 537.325L95.5549 537.66L95.2204 538.902L94.8859 537.66L93.6436 537.325L94.8859 536.991L95.2204 535.749Z" fill="white" fill-opacity="0.3"/>
<path d="M292.595 96.598L292.929 97.8403L294.172 98.1748L292.929 98.5093L292.595 99.7516L292.26 98.5093L291.018 98.1748L292.26 97.8403L292.595 96.598Z" fill="white" fill-opacity="0.1"/>
</g>
<g filter="url(#filter1_i_481_616)">
<path d="M-276.895 712.874C-278.775 711.371 -284.415 708.961 -287 707.944V1176H1643V749.727C1642.22 749.257 1640.37 748.13 1639.24 747.379C1637.83 746.44 1636.19 747.379 1635.72 747.379C1635.25 747.379 1630.31 746.675 1629.37 745.736C1628.43 744.797 1623.97 746.675 1622.32 746.675C1620.68 746.675 1617.39 749.727 1614.57 749.727C1611.75 749.727 1608.93 754.187 1607.75 754.656C1606.58 755.125 1599.76 751.604 1598.59 750.431C1597.41 749.257 1592.24 748.318 1591.3 748.318C1590.36 748.318 1587.07 744.797 1585.19 744.328C1583.31 743.858 1580.02 747.379 1577.91 747.379C1575.79 747.379 1566.63 755.36 1564.98 757.942C1563.34 760.524 1555.82 767.801 1554.41 767.332C1553 766.862 1549 765.219 1545.01 764.28C1541.01 763.341 1533.49 757.942 1531.85 757.238C1530.2 756.534 1528.56 757.942 1527.15 757.942C1525.74 757.942 1521.27 761.933 1519.16 761.933C1517.04 761.933 1513.75 762.872 1512.11 763.341C1510.46 763.811 1505.06 765.219 1503.88 764.28C1502.71 763.341 1500.12 764.28 1497.07 765.219C1494.63 765.97 1486.65 773.982 1482.97 777.894C1481.72 777.034 1478.97 775.312 1478.03 775.312C1476.86 775.312 1468.17 775.078 1466.52 773.669C1464.88 772.261 1460.41 771.557 1459.47 771.557C1458.53 771.557 1450.07 766.627 1448.9 764.28C1447.72 761.933 1442.08 763.106 1441.38 761.933C1440.67 760.759 1434.33 755.595 1431.74 753.952C1429.16 752.309 1419.99 761.933 1418.58 761.933C1417.17 761.933 1405.42 767.566 1403.78 767.566H1393.44C1390.62 767.566 1382.71 765.375 1379.1 764.28C1375.26 762.167 1367.45 757.942 1366.88 757.942C1366.18 757.942 1362.18 755.125 1361.48 754.891C1360.77 754.656 1357.01 751.839 1355.84 751.135C1354.9 750.572 1348.71 747.301 1345.73 745.736C1344.32 742.919 1334.69 736.112 1332.81 736.112C1330.93 736.112 1326.7 735.408 1325.99 735.173C1325.29 734.939 1326.23 733.061 1322.94 733.061C1319.65 733.061 1317.06 729.07 1316.83 728.366C1316.59 727.662 1314.24 727.427 1313.07 727.427C1311.89 727.427 1307.43 724.141 1306.02 722.732C1304.61 721.324 1303.67 722.028 1302.73 722.028C1301.79 722.028 1298.03 717.568 1296.15 716.629C1294.27 715.69 1288.4 716.629 1287.46 716.629C1286.52 716.629 1283.7 722.028 1282.52 722.028C1281.35 722.028 1277.35 722.028 1276.41 722.732C1275.47 723.437 1271.24 724.141 1268.89 724.141C1266.54 724.141 1261.14 730.479 1258.32 729.774C1255.5 729.07 1253.85 730.479 1250.09 731.652C1246.33 732.826 1245.16 731.652 1243.04 731.652C1240.93 731.652 1237.17 730.479 1235.05 730.479C1232.94 730.479 1222.6 732.356 1219.31 732.356C1216.02 732.356 1212.26 730.479 1210.85 730.479C1209.44 730.479 1200.74 741.98 1199.33 741.98C1197.92 741.98 1192.52 740.572 1190.17 739.868C1187.82 739.164 1186.41 737.286 1183.82 737.286C1181.24 737.286 1181 737.286 1180.06 738.694C1179.31 739.821 1176.3 741.355 1174.89 741.98C1170.43 741.276 1170.43 742.685 1167.61 743.858C1165.35 744.797 1163.22 742.998 1162.44 741.98C1161.11 742.215 1157.74 742.685 1154.92 742.685C1151.39 742.685 1149.75 739.868 1148.34 739.868C1147.21 739.868 1145.68 738.147 1145.05 737.286L1140.35 734.939C1139.8 733.921 1138.56 731.84 1138 731.652C1137.29 731.418 1135.65 730.009 1133.3 730.009C1130.95 730.009 1130.01 726.019 1127.66 725.08C1125.31 724.141 1124.6 725.08 1122.02 725.08C1119.43 725.08 1113.8 736.816 1111.45 736.816C1109.1 736.816 1099.23 744.328 1096.17 745.032C1093.73 745.595 1090.92 744.797 1089.83 744.328L1084.89 746.91C1082.46 745.501 1077.47 742.544 1076.9 741.98C1076.2 741.276 1069.15 737.521 1068.44 737.521C1067.74 737.521 1065.39 733.765 1063.98 733.295C1062.57 732.826 1052.46 721.089 1051.76 720.385C1051.05 719.681 1041.65 721.089 1039.54 721.089C1037.42 721.089 1029.43 716.16 1027.55 715.69C1025.67 715.221 1021.44 718.038 1020.03 718.038C1018.62 718.038 1013.22 719.211 1008.28 718.038C1003.35 716.864 1002.17 719.211 1000.29 720.385C998.413 721.559 995.594 721.089 993.244 721.089C990.894 721.089 985.489 723.906 981.024 723.671C976.71 723.445 974.809 724.971 973.625 725.921L973.504 726.019C972.329 726.958 964.104 727.427 963.399 727.427C962.694 727.427 958.7 725.08 956.585 725.08C954.47 725.08 948.36 726.958 947.89 726.723C947.42 726.488 944.365 725.549 942.015 725.08C939.665 724.61 935.435 725.08 931.675 720.385C927.915 715.69 920.866 712.404 915.226 709.353C909.586 706.301 909.351 707.475 908.646 707.475C907.941 707.475 901.126 709.353 897.601 709.353C894.076 709.353 894.076 708.649 892.196 708.649C890.317 708.649 887.732 708.179 884.677 707.475C881.622 706.771 880.212 707.24 874.807 707.475C869.402 707.71 863.762 703.719 862.117 702.78C860.472 701.841 858.592 700.902 857.887 700.902C857.182 700.902 853.657 698.086 852.013 698.086C850.697 698.086 847.391 695.582 845.903 694.33H845.433L841.438 693.86C840.655 693.313 838.9 692.123 838.148 691.748C837.396 691.372 834.231 691.591 832.743 691.748C827.495 688.305 816.576 681.185 814.884 680.246C812.769 679.072 810.654 678.838 808.304 678.838C805.954 678.838 803.369 676.021 802.664 675.317C801.959 674.612 798.904 672.969 798.199 672.969C797.494 672.969 791.619 667.101 791.149 666.162C790.679 665.223 788.799 666.162 787.859 666.162C786.919 666.162 776.11 656.773 775.405 656.303C774.7 655.834 772.585 658.181 771.88 658.181C771.175 658.181 768.825 660.059 766.24 661.467C763.655 662.876 759.895 660.998 758.015 660.763C756.135 660.528 752.845 658.416 752.375 658.651C751.905 658.885 748.146 660.059 747.206 659.12C746.266 658.181 744.152 656.773 743.446 656.304L743.446 656.303C742.741 655.834 741.801 656.303 741.096 656.303C740.391 656.303 737.571 660.059 736.396 660.059C735.221 660.059 733.106 657.477 732.166 656.773C731.226 656.069 727.701 656.303 726.526 655.364C725.351 654.425 719.006 649.966 718.066 649.261C717.314 648.698 715.873 649.496 715.246 649.966H708.432C707.257 649.966 701.382 653.956 699.737 653.956C698.092 653.956 695.507 656.773 694.097 656.773C692.687 656.773 688.457 664.519 687.282 664.519C686.107 664.519 680.937 671.091 679.762 670.387C678.588 669.683 676.473 668.979 674.358 668.744C672.243 668.509 670.833 661.937 668.718 661.937C667.026 661.937 660.023 658.494 656.733 656.773C654.305 654.425 649.307 649.496 648.743 648.557C648.038 647.383 643.808 644.097 640.284 642.219C636.759 640.341 626.654 651.139 625.479 651.139C624.304 651.139 622.424 653.956 621.014 653.956C619.604 653.956 614.434 658.651 613.259 658.885C612.319 659.073 608.168 662.25 606.21 663.815C605.583 664.284 603.954 665.176 602.45 664.988C600.57 664.754 592.815 672.265 592.11 672.969C591.546 673.533 588.428 677.899 586.94 680.011C584.59 680.715 576.13 685.645 574.72 686.114C573.31 686.584 558.506 699.729 558.036 699.729C557.566 699.729 555.216 700.668 549.576 699.729C543.936 698.79 540.881 700.668 537.591 698.79C534.302 696.912 530.072 696.912 527.957 695.269C526.265 693.954 522.709 693.782 521.142 693.86C517.852 690.574 516.207 692.921 515.032 692.452C513.857 691.983 512.917 691.748 511.272 691.044C509.627 690.339 508.922 691.748 506.102 691.748C503.282 691.748 498.583 690.105 496.468 689.166C494.776 688.415 492.943 690.574 492.238 691.748C491.611 690.887 490.076 689.166 488.948 689.166C487.538 689.166 485.658 687.992 484.013 687.053C482.368 686.114 481.663 688.461 479.548 689.166C477.433 689.87 468.503 688.461 467.799 688.461C467.094 688.461 465.919 690.105 464.744 690.105C463.569 690.105 461.219 687.053 460.279 686.584C459.527 686.208 456.362 688.774 454.874 690.105C453.542 689.322 450.738 687.617 450.174 687.053C449.61 686.49 447.432 687.757 446.414 688.461C445.161 687.21 442.466 684.612 441.714 684.236C440.962 683.861 438.738 684.706 437.719 685.175C435.761 687.288 431.61 691.795 430.67 692.921C429.495 694.33 424.795 693.156 424.09 692.452C423.385 691.748 420.8 691.044 420.33 691.044C419.86 691.044 417.04 688.696 416.805 688.461C416.57 688.227 413.985 689.87 412.575 690.105C411.165 690.339 408.58 693.626 405.995 693.626H398.005C395.562 693.626 391.817 692.53 390.251 691.982C384.376 691.982 372.861 705.597 371.921 707.24C371.169 708.555 369.728 708.883 369.101 708.883C367.456 711.543 363.508 717.38 360.877 719.446C357.587 722.028 351.947 731.417 351.007 733.53C350.255 735.22 347.874 734.234 346.777 733.53C345.837 734.547 343.816 736.863 343.252 737.99C342.547 739.398 338.082 744.093 336.672 745.501C335.544 746.628 333.539 745.971 332.677 745.501C332.051 746.049 330.233 747.52 327.977 749.022C326.474 750.712 319.988 749.179 319.048 749.961C317.356 749.21 313.956 750.274 312.468 750.9C309.491 752.309 303.068 755.125 301.188 755.125C298.838 755.125 289.674 755.36 288.969 755.125C288.264 754.891 287.089 750.9 286.384 750.9C285.679 750.9 274.634 748.318 273.459 745.501L268.759 742.45C268.289 741.746 267.114 740.149 266.174 739.398C264.999 738.459 256.54 740.807 256.305 739.398C256.117 738.272 254.346 737.051 253.485 736.582C252.701 734.625 250.947 730.525 250.195 729.774C249.443 729.023 246.905 728.522 245.73 728.366C244.79 726.801 242.581 723.718 241.265 723.906C239.949 724.094 236.643 724.61 235.155 724.845C232.57 727.583 227.259 733.154 226.695 733.53C225.99 733.999 221.761 737.99 221.761 739.398C221.761 740.807 220.586 742.45 220.116 744.093C219.646 745.736 215.886 751.135 213.536 752.778C211.656 754.093 211.186 755.986 211.186 756.768L209.306 760.289L206.016 758.177H196.381C194.971 758.177 194.501 759.585 193.796 759.351C193.091 759.116 179.932 756.768 178.757 755.595C177.582 754.421 169.827 753.717 168.182 752.778C166.537 751.839 164.187 746.91 162.072 746.91C160.38 746.91 157.451 749.257 156.197 750.431C155.179 748.866 152.813 745.595 151.498 745.032C149.853 744.328 148.208 741.276 146.563 739.398C144.918 737.52 142.098 736.582 141.863 735.643C141.628 734.704 139.748 732.591 138.338 732.122C136.928 731.652 135.048 728.835 133.403 728.366C131.758 727.896 131.053 729.305 127.998 730.713C124.943 732.122 119.773 740.807 118.833 741.276C118.081 741.652 116.484 743.311 115.779 744.093C115.074 744.875 113.194 746.534 111.314 746.91C108.964 747.379 107.789 749.961 107.319 751.135C106.849 752.309 102.619 753.717 99.799 753.717C97.5431 753.717 95.2558 755.751 94.3941 756.768C90.3993 756.768 88.5193 756.768 85.2294 754.656C81.9395 752.543 81.9395 753.717 78.4146 752.074C74.8897 750.431 73.2448 751.135 71.1298 751.135C69.0149 751.135 62.4351 745.032 61.4951 744.093C60.5551 743.154 57.7352 747.849 56.3252 748.083C55.1973 748.271 53.9753 750.196 53.5053 751.135C52.3304 751.448 49.6984 752.074 48.5704 752.074C47.4425 752.074 45.4372 753.169 44.5756 753.717H32.3559L28.831 755.83C27.1077 756.221 23.0032 756.956 20.3712 756.768C17.7393 756.581 16.4547 757.629 16.1414 758.177C14.6531 757.003 11.5355 754.468 10.9715 753.717C10.2665 752.778 8.62158 753.717 5.33167 752.074C2.69974 750.759 0.631805 751.526 -0.0731812 752.074C-1.24814 752.152 -3.78607 752.262 -4.53806 752.074C-5.29001 751.886 -6.88797 753.717 -7.59296 754.656L-10.1779 753.717L-12.9978 755.83C-14.0945 755.986 -16.5227 756.205 -17.4627 755.83C-18.6376 755.36 -22.8675 755.36 -24.9825 753.717C-27.0974 752.074 -27.8024 753.952 -30.1523 753.717C-32.5022 753.482 -32.9722 751.135 -33.9122 748.788C-34.8522 746.44 -36.7321 747.379 -37.9071 746.206C-39.0821 745.032 -47.5418 746.675 -48.2468 746.206C-48.9518 745.736 -49.8918 744.093 -51.3017 742.45C-52.7117 740.807 -58.1165 743.858 -58.8215 744.093C-59.3855 744.281 -61.7197 739.477 -62.8164 737.051C-64.0697 737.364 -66.7173 737.614 -67.2812 736.112C-67.8452 734.61 -77.0726 728.757 -81.6158 726.019H-84.6708C-87.2557 724.297 -92.5195 720.62 -92.8955 719.681C-93.2715 718.742 -94.7755 717.412 -95.4805 716.864C-97.5171 717.021 -101.778 717.24 -102.53 716.864C-103.282 716.488 -109.58 713.578 -112.635 712.169C-122.27 712.404 -125.325 709.822 -126.5 708.648C-127.675 707.475 -134.254 705.597 -138.484 703.484C-141.868 701.794 -153.054 701.215 -158.224 701.137C-160.887 703.876 -166.354 709.446 -166.918 709.822C-167.623 710.292 -170.443 713.578 -171.148 713.578H-175.613C-176.788 713.578 -180.548 718.038 -181.018 719.681C-181.394 720.995 -183.525 722.419 -184.543 722.967C-185.953 722.576 -188.914 721.793 -189.478 721.793C-190.183 721.793 -196.998 724.845 -198.173 724.845C-199.347 724.845 -201.462 726.723 -202.402 726.488C-203.342 726.253 -206.632 725.549 -207.572 725.549C-208.512 725.549 -211.332 722.967 -212.507 721.793C-213.682 720.62 -218.382 721.793 -219.792 721.793C-221.202 721.793 -223.082 723.906 -224.257 723.906C-225.432 723.906 -227.077 724.845 -227.782 725.549C-228.346 726.112 -230.053 725.314 -230.837 724.845C-231.542 724.454 -233.281 723.296 -234.596 721.793C-235.912 720.291 -237.965 719.759 -238.826 719.681C-240.315 718.664 -243.573 716.207 -244.701 714.517C-246.111 712.404 -255.276 711.935 -256.921 711.465C-258.566 710.996 -263.031 713.813 -264.206 713.578C-265.381 713.343 -267.496 716.395 -269.141 716.629C-270.785 716.864 -274.545 714.751 -276.895 712.874Z" fill="black"/>
</g>
</g>
<defs>
<filter id="filter0_f_481_616" x="-612.509" y="-118.9" width="2684.16" height="1780.88" filterUnits="userSpaceOnUse" color-interpolation-filters="sRGB">
<feFlood flood-opacity="0" result="BackgroundImageFix"/>
<feBlend mode="normal" in="SourceGraphic" in2="BackgroundImageFix" result="shape"/>
<feGaussianBlur stdDeviation="200.95" result="effect1_foregroundBlur_481_616"/>
</filter>
<filter id="filter1_i_481_616" x="-287" y="642" width="1930" height="540" filterUnits="userSpaceOnUse" color-interpolation-filters="sRGB">
<feFlood flood-opacity="0" result="BackgroundImageFix"/>
<feBlend mode="normal" in="SourceGraphic" in2="BackgroundImageFix" result="shape"/>
<feColorMatrix in="SourceAlpha" type="matrix" values="0 0 0 0 0 0 0 0 0 0 0 0 0 0 0 0 0 0 127 0" result="hardAlpha"/>
<feOffset dy="6"/>
<feGaussianBlur stdDeviation="90"/>
<feComposite in2="hardAlpha" operator="arithmetic" k2="-1" k3="1"/>
<feColorMatrix type="matrix" values="0 0 0 0 0.00392157 0 0 0 0 0.360784 0 0 0 0 0.901961 0 0 0 1 0"/>
<feBlend mode="normal" in2="shape" result="effect1_innerShadow_481_616"/>
</filter>
<radialGradient id="paint0_radial_481_616" cx="0" cy="0" r="1" gradientUnits="userSpaceOnUse" gradientTransform="translate(574.728 799.527) rotate(90) scale(377.904 607.49)">
<stop stop-color="#95CFFB"/>
<stop offset="1" stop-color="#015CE6"/>
</radialGradient>
</defs>
</svg>
