<svg width="405" height="50" viewBox="0 0 405 50" fill="none" xmlns="http://www.w3.org/2000/svg">
<path d="M55.7354 0C55.7314 8.65107 48.7234 15.6553 40.0762 15.6553C49.4519 15.6553 57.0498 23.2572 57.0498 32.6289C57.0498 33.0722 57.0337 33.5118 56.998 33.9473C56.3248 42.7051 49.0083 49.6064 40.0762 49.6064H1.31836C1.31836 41.0703 8.14023 34.1374 16.6289 33.9512L16.5381 33.9473C7.36436 33.7136 5.18746e-05 26.2027 0 16.9736C0 16.5302 0.0161334 16.0907 0.0517578 15.6553C0.712965 7.03985 7.80778 0.221741 16.5381 0H55.7354ZM37.2646 15.71C30.3915 17.4997 26.2734 17.4996 19.4004 15.71C21.1902 22.5831 21.1902 26.7021 19.4004 33.5752C26.2734 31.7855 30.3915 31.7855 37.2646 33.5752C35.4749 26.7021 35.4749 22.5831 37.2646 15.71Z" fill="white"/>
<path d="M229.815 5.55457H223.357V12.0122H229.815V5.55457Z" fill="white"/>
<path d="M99.7433 17.3734C99.7433 16.0708 99.1929 14.982 98.0883 14.0991C96.9876 13.2201 95.6295 12.7767 94.0181 12.7767C92.4066 12.7767 91.0525 13.1251 90.134 13.818C89.2194 14.5148 88.7601 15.4849 88.7601 16.7241C88.7601 17.7892 89.0927 18.6523 89.7578 19.3214C90.423 19.9866 91.294 20.4775 92.367 20.7943C93.44 21.111 94.6199 21.3921 95.9067 21.6376C97.1934 21.8831 98.4802 22.2077 99.767 22.6156C101.054 23.0234 102.238 23.5579 103.315 24.223C104.395 24.8882 105.267 25.8899 105.932 27.2282C106.597 28.5664 106.929 30.1897 106.929 32.0981C106.929 35.3685 105.722 37.9578 103.311 39.8662C100.899 41.7746 97.7992 42.7288 94.0141 42.7288C90.229 42.7288 87.2199 41.739 84.9076 39.7554C82.5914 37.7717 81.4353 35.0794 81.4353 31.6784H87.8059C87.8059 33.2186 88.3839 34.4974 89.548 35.515C90.7081 36.5365 92.2007 37.0472 94.0181 37.0472C95.8354 37.0472 97.3598 36.584 98.5 35.6615C99.6403 34.7389 100.21 33.5512 100.21 32.102C100.21 31.0093 99.8779 30.1105 99.2127 29.4176C98.5476 28.7208 97.6725 28.214 96.5956 27.8973C95.5147 27.5805 94.3309 27.2994 93.0441 27.0539C91.7573 26.8124 90.4705 26.4917 89.1837 26.0997C87.8969 25.7078 86.7171 25.1851 85.6441 24.5358C84.5711 23.8865 83.704 22.8967 83.0388 21.5743C82.3737 20.2479 82.0411 18.6325 82.0411 16.7241C82.0411 13.723 83.1695 11.3672 85.4263 9.65676C87.6831 7.94634 90.5497 7.09509 94.026 7.09509C97.5023 7.09509 100.48 8.00574 102.737 9.82306C104.993 11.6443 106.122 14.1585 106.122 17.3655H99.7472L99.7433 17.3734Z" fill="white"/>
<path d="M138.244 31.6387H117.01C117.378 33.1472 118.253 34.4418 119.627 35.5227C121.005 36.6036 122.585 37.1421 124.374 37.1421C125.677 37.1421 126.841 36.8452 127.87 36.2552C128.9 35.6653 129.703 34.9289 130.277 34.0578H137.289C136.359 36.6907 134.708 38.7931 132.344 40.3689C129.977 41.9447 127.324 42.7326 124.378 42.7326C120.415 42.7326 117.045 41.3904 114.27 38.706C111.494 36.0216 110.109 32.7116 110.109 28.7761C110.109 24.8405 111.502 21.5385 114.29 18.8699C117.077 16.2013 120.47 14.8671 124.465 14.8671C128.46 14.8671 131.703 16.2172 134.459 18.9174C137.218 21.6177 138.596 24.9039 138.596 28.7801C138.596 29.6234 138.477 30.5776 138.24 31.6426L138.244 31.6387ZM131.695 26.2263C131.354 24.5555 130.539 23.1539 129.256 22.0215C127.969 20.8892 126.37 20.323 124.461 20.323C122.553 20.323 120.969 20.8892 119.623 22.0215C118.277 23.1539 117.433 24.5555 117.093 26.2263H131.695Z" fill="white"/>
<path d="M164.712 25.6522C164.106 24.1437 163.16 22.9084 161.873 21.9463C160.586 20.9842 159.018 20.5051 157.169 20.5051C154.714 20.5051 152.719 21.293 151.191 22.8688C149.658 24.4446 148.894 26.4163 148.894 28.78C148.894 31.1437 149.658 33.1194 151.191 34.6952C152.723 36.271 154.714 37.0589 157.169 37.0589C159.018 37.0589 160.586 36.5798 161.873 35.6296C163.16 34.6754 164.106 33.4362 164.712 31.9118H171.391C170.754 35.2416 169.174 37.8745 166.644 39.8225C164.114 41.7665 160.954 42.7405 157.169 42.7405C152.834 42.7405 149.258 41.4142 146.439 38.7575C143.62 36.1008 142.215 32.7789 142.215 28.784C142.215 24.7891 143.624 21.4672 146.439 18.8105C149.258 16.1578 152.834 14.8275 157.169 14.8275C160.958 14.8275 164.106 15.8014 166.62 17.7455C169.134 19.6895 170.726 22.3264 171.391 25.6561H164.712V25.6482V25.6522Z" fill="white"/>
<path d="M199.882 15.6432V41.9568H193.424V37.9183H193.333C192.636 39.308 191.639 40.4601 190.336 41.3668C189.033 42.2775 187.489 42.7328 185.7 42.7328C182.667 42.7328 180.204 41.6954 178.312 39.6168C176.419 37.5382 175.473 34.8498 175.473 31.5517V15.6432H181.93V31.1083C181.93 32.7197 182.489 34.0936 183.605 35.2259C184.722 36.3583 186.072 36.9245 187.656 36.9245C189.239 36.9245 190.633 36.3544 191.75 35.2141C192.866 34.0738 193.424 32.7078 193.424 31.1083V15.6432H199.882Z" fill="white"/>
<path d="M211.777 22.7541V41.9607H205.319V15.6432H219.133V22.2672H211.777" fill="white"/>
<path d="M229.815 15.6432V41.9568H223.357V15.6432H229.815Z" fill="white"/>
<path d="M234.456 15.6432V9.69629H240.914V15.6432H245.419V20.8338H240.914V34.6359C240.914 35.0952 241.068 35.4753 241.369 35.7802C241.674 36.085 242.034 36.2355 242.446 36.2355H245.419V41.9606H242.446C240.047 41.9606 238.118 41.2598 236.654 39.8543C235.189 38.4487 234.456 36.5641 234.456 34.1964V15.6471V15.6432Z" fill="white"/>
<path d="M261.058 49.7249H254.423L257.638 41.3589L247.652 15.6432H254.328L260.92 33.1948H261.011L267.556 15.6432H274.235L261.054 49.7249H261.058Z" fill="white"/>
<path d="M301.118 27.8139C298.79 30.039 295.959 31.1516 292.63 31.1516H284.089V41.9565H277.632V7.87482H292.63C295.959 7.87482 298.786 8.98739 301.118 11.2125C303.446 13.4376 304.61 16.2052 304.61 19.5112C304.61 22.8172 303.446 25.5848 301.118 27.8099V27.8139ZM296.347 15.3302C295.318 14.1741 294.083 13.6 292.63 13.6H284.089V25.4264H292.63C294.079 25.4264 295.318 24.8483 296.347 23.6962C297.377 22.5401 297.892 21.1464 297.892 19.5152C297.892 17.8839 297.377 16.4863 296.347 15.3341V15.3302Z" fill="white"/>
<path d="M329.487 37.7439H329.396C328.552 39.1336 327.384 40.3135 325.9 41.2835C324.411 42.2535 322.657 42.7365 320.63 42.7365C316.754 42.7365 313.459 41.4023 310.747 38.7297C308.031 36.0612 306.673 32.7433 306.673 28.78C306.673 24.8167 308.031 21.5424 310.747 18.8738C313.459 16.2053 316.758 14.871 320.63 14.871C324.209 14.871 327.131 16.4032 329.396 19.4638H329.487V15.647H335.944V41.9605H329.487V37.7478V37.7439ZM327.147 23.0786C325.587 21.4949 323.69 20.703 321.453 20.703C319.216 20.703 317.336 21.4988 315.764 23.0905C314.188 24.6821 313.4 26.5786 313.4 28.78C313.4 30.9814 314.188 32.9491 315.764 34.5368C317.34 36.1285 319.236 36.9243 321.453 36.9243C323.67 36.9243 325.603 36.1285 327.159 34.5368C328.711 32.9491 329.487 31.0289 329.487 28.78C329.487 26.5311 328.707 24.6584 327.147 23.0786Z" fill="white"/>
<path d="M341.381 7.87482H347.839V41.9565H341.381V7.87482Z" fill="white"/>
<path d="M383.112 7.87482H375.114L363.113 41.9565H370.002L372.386 34.8258H385.836L388.239 41.9565H395.128L383.112 7.87482ZM374.136 29.6193L378.97 15.2114H379.251L384.089 29.6193H374.136Z" fill="white"/>
<path d="M398.522 7.87482V41.9565H405V7.87482H398.522Z" fill="white"/>
</svg>
